<?xml version="1.0" standalone="no"?>
<!DOCTYPE svg PUBLIC "-//W3C//DTD SVG 20010904//EN"
 "http://www.w3.org/TR/2001/REC-SVG-20010904/DTD/svg10.dtd">
<svg version="1.0" xmlns="http://www.w3.org/2000/svg"
 width="82.000000pt" height="88.000000pt" viewBox="0 0 82.000000 88.000000"
 preserveAspectRatio="xMidYMid meet">

<g transform="translate(0.000000,88.000000) scale(0.100000,-0.100000)"
fill="#fff" stroke="none">
<path d="M272 698 l-142 -82 0 -163 0 -162 93 -55 c50 -29 115 -66 142 -81
l50 -28 140 81 140 81 -3 165 -3 165 -107 62 c-59 34 -121 70 -138 80 l-30 18
-142 -81z m106 -69 c12 -19 8 -59 -6 -59 -4 1 -18 10 -31 21 -23 19 -23 20 -6
39 23 25 27 25 43 -1z m82 -29 c0 -26 -10 -30 -36 -13 -28 18 -31 38 -6 52 19
11 42 -10 42 -39z m44 -3 c-2 -7 9 -43 26 -80 16 -36 30 -74 30 -83 0 -22
-139 -163 -168 -171 -20 -5 -36 6 -93 63 -38 38 -69 73 -69 79 0 6 18 28 40
50 l40 39 -12 -32 c-12 -31 -11 -33 47 -92 l59 -60 25 25 25 25 -42 43 c-23
23 -42 49 -42 58 0 8 27 45 61 82 57 63 85 84 73 54z"/>
<path d="M461 490 c0 -32 34 -97 43 -82 4 6 -4 33 -18 59 -21 40 -25 44 -25
23z"/>
</g>
</svg>
